# xmcd
#
# Track frame offsets: 
#        150
#        22915
#        45575
#        77664
#        103563
#        116563
#        143873
#        160199
#        175360
#        195661
#        208756
#        236329
#        260264
#        310915
#        330152
#
# Disc length: 4660 seconds
#
# Revision: 0
# Processed by: cddbd v1.5.2PL0 Copyright (c) Steve Scherf et al.
# Submitted via: ExactAudioCopy v0.95b3
#
DISCID=bd12320f
DTITLE=The Rolling Stones - Through The Vaults Darkly(2007) - Disc 2  
DTITLE=[FLAC]
DYEAR=1900
DGENRE=
TTITLE0=Dance Little Sister
TTITLE1=Everlasting Is My Love
TTITLE2=FingerprintFile(Original Long Version)
TTITLE3=Fool To Cry
TTITLE4=Let's Go Steady
TTITLE5=Yellow Cab
TTITLE6=Claudine
TTITLE7=You Win Again
TTITLE8=Misty Roads
TTITLE9=We've Had It All
TTITLE10=Indian Girl
TTITLE11=Summer Romance
TTITLE12=Slave(Original Long Version)
TTITLE13=Wating On A Friend
TTITLE14=Undercover To The Night
EXTD=
EXTT0=
EXTT1=
EXTT2=
EXTT3=
EXTT4=
EXTT5=
EXTT6=
EXTT7=
EXTT8=
EXTT9=
EXTT10=
EXTT11=
EXTT12=
EXTT13=
EXTT14=
PLAYORDER=
